<?xml version="1.0"?>
<svg xmlns:rdf="http://www.w3.org/1999/02/22-rdf-syntax-ns#" xmlns="http://www.w3.org/2000/svg" xmlns:cc="http://web.resource.org/cc/" xmlns:xlink="http://www.w3.org/1999/xlink" xmlns:dc="http://purl.org/dc/elements/1.1/" xmlns:svg="http://www.w3.org/2000/svg" id="Layer_1" xml:space="preserve" overflow="visible" viewBox="0 0 292.746 337.521" version="1.1" enable-background="new 0 0 292.746 337.521">
<g clip-rule="evenodd" fill-rule="evenodd">
	<path d="m209.22 266.46c55.502-5.477 87.385-85.259 51.793-121.34 22.375 41.625 5.438 100.83-38.474 109.5-1.022-2.923-3.947-3.946-7.4-4.44 9.019-10.715 26.66-12.804 34.036-25.157 26.808-47.027-8.602-104.45-63.631-85.827 21.526 0.989 44.034 1.137 57.712 16.277 18.684 20.685 11.906 64.544-19.238 69.55 6.952-10.895 21.057-28.459 11.842-45.873-10.403 15.743-24.035 28.256-42.914 35.514-8.445 15.729-17.856 30.489-42.917 29.598 23.163-16.531 11.351-63.241-5.918-81.388 21.278 5.49 54.63 15.904 50.312 47.353 14.759-25.13-21.125-34.034-31.076-48.833 6.235-3.138 14.563-4.183 20.718-7.4-11.291-6.114-21.626 8.638-29.595 5.919 5.103-11.668 19.047-14.492 29.595-20.717-14.6-1.271-26.769 12.683-36.995 20.717-4.484-3.119-6.6-0.941-11.839-4.439 11.025-23.122 43.302-38.342 79.908-34.035 20.766 2.443 34.918 15.242 45.874 22.197-9.026-21.661-61.965-35.96-91.746-19.237 3.143-6.163 16.193-11.934 23.679-13.319 70.341-13.009 127.15 52.403 85.827 115.43-13.84 21.11-40.05 36.67-69.54 39.95zm19.24-94.71c-7.853-12.228-28.632-23.575-42.915-16.278 18.94 0.8 31.72 7.75 42.92 16.28z"/>
	<path d="m123.39 321.21c1.154 3.282 7.157-4.883 10.357 0-2.117 4.297-8.617 4.206-10.357 8.879 3.325 3.58 11.907 1.903 13.318 7.399-20.301 0.56-37.697-5.705-54.753-4.439 4.695-4.219 13.376-8.861 20.719-5.92-1.113-7.273-17.899 1.126-17.759-7.4 31.926 1.84 39.442-20.733 48.833-41.432-10.967-18.673-35.973-31.053-42.914-48.833 19.776 13.357 69.258 15.92 62.151 47.352-1.656 7.334-12.773 12.365-17.758 20.719-5.19 8.68-4.95 17.19-11.84 23.67z"/>
	<path d="m71.6 19.331c7.545 10.479 22.856 25.286 25.155 45.874-2.691 16.295-19.691 23.568-19.236 38.475 0.631 20.665 30.334 29.657 45.874 41.434 19.09 18.662 40.326 48.39 35.516 81.39-3.372 7.479-8.856 12.846-14.799 17.756-8.17 0.771-13.95-0.849-20.717-1.481-37.664-23.345-71.886-42.227-108.03-68.068-5.659-35.07 19.823-58.61 51.8-41.43-5.66-13.444-59.563-12.094-51.793 22.196-34.866-23.792-2.715-64.691 20.718-82.868 15.422-11.971 40.807-22.103 26.637-48.842 3.344 10.982 0.393 33.998-13.32 36.995 2.399-7.852 9.037-16.322 1.48-22.198-6.504 9.772-11.183 21.372-23.676 25.157-6.572-6.448 0.301-16.912-2.961-22.197-9.015-3.474-14.473 0.219-23.676 1.48-1.723-6.594 7.27-14.119 14.797-16.277-12.251-26.099 28.868-30.932 47.356-23.678-5.663 5.84-11.47 17.226-20.718 14.799 3.739 4.894-4.688 13.283 4.439 13.317-7.77-5.601 6.605-10.423 5.919-16.277 9.333-2.383 13.774 7.869 19.238 4.44zm-42.914 11.837c-0.029-7.4 4.767-5.569 10.358-4.439-0.944-11.915-20.232-2.262-10.358 4.439zm68.069 121.34c-3.178-9.663-10.763-22.756-20.716-20.717 9.75 4.07 13.856 13.77 20.716 20.72zm25.155 5.92c-1.125-4.363-6.898-11.758-10.358-8.879 4.37 2.05 5.99 6.84 10.36 8.88zm-38.472 28.12c7.962 10.883 27.729 17.515 38.475 20.716-7.52-9.65-30.536-22.78-38.472-20.72zm4.439 20.71c11.678 4.892 27.188 20.752 36.995 17.756-7.63-13.087-24.175-17.26-38.475-23.675-0.109 2.58 0.334 4.6 1.482 5.92z"/>
</g>
<metadata><rdf:RDF><cc:Work><dc:format>image/svg+xml</dc:format><dc:type rdf:resource="http://purl.org/dc/dcmitype/StillImage"/><cc:license rdf:resource="http://creativecommons.org/licenses/publicdomain/"/><dc:publisher><cc:Agent rdf:about="http://openclipart.org/"><dc:title>Openclipart</dc:title></cc:Agent></dc:publisher><dc:title>rooster silhouette</dc:title><dc:date>2006-10-26T21:58:09</dc:date><dc:description>a stylized silhouette of a rooster</dc:description><dc:source>http://openclipart.org/detail/969/rooster-silhouette-by-johnny_automatic</dc:source><dc:creator><cc:Agent><dc:title>johnny_automatic</dc:title></cc:Agent></dc:creator><dc:subject><rdf:Bag><rdf:li>animal</rdf:li><rdf:li>bird</rdf:li><rdf:li>black</rdf:li><rdf:li>chicken</rdf:li><rdf:li>clip art</rdf:li><rdf:li>clipart</rdf:li><rdf:li>image</rdf:li><rdf:li>media</rdf:li><rdf:li>png</rdf:li><rdf:li>public domain</rdf:li><rdf:li>rooster</rdf:li><rdf:li>silhouette</rdf:li><rdf:li>svg</rdf:li></rdf:Bag></dc:subject></cc:Work><cc:License rdf:about="http://creativecommons.org/licenses/publicdomain/"><cc:permits rdf:resource="http://creativecommons.org/ns#Reproduction"/><cc:permits rdf:resource="http://creativecommons.org/ns#Distribution"/><cc:permits rdf:resource="http://creativecommons.org/ns#DerivativeWorks"/></cc:License></rdf:RDF></metadata></svg>
